<?xml version="1.0" encoding="utf-8"?>
<!-- Generator: Adobe Illustrator 22.1.0, SVG Export Plug-In . SVG Version: 6.00 Build 0)  -->
<svg version="1.1" id="Layer_1" xmlns="http://www.w3.org/2000/svg" xmlns:xlink="http://www.w3.org/1999/xlink" x="0px" y="0px"
	 viewBox="0 0 53.7 56" style="enable-background:new 0 0 53.7 56;" xml:space="preserve">
<style type="text/css">
	.st0{fill:none;}
	.st1{fill:#ED1C24;}
	.st2{fill:#FFF200;}
	.st3{fill:#00A651;}
	.st4{fill:#0072BC;}
</style>
<title>Logo SGI</title>
<path class="st0" d="M45.1,31.2c0,0,2.5,12.1-1.4,14.2c-3.5,1.9-6.5,0.2-13.5-8.8c0,0,2.6,13-1.3,15c-4,2.1-6.6-0.3-11.8-8.2"/>
<path class="st1" d="M13.9,45.7c1.3,2,2.8,3.9,4.5,5.6c1.7,1.7,3.6,4.6,8.3,4.7c2.5-0.3,3.3-0.3,5.8-2.5c1.2-1.4,1.9-3.1,2.1-4.9
	c0.4-2.6,0.4-5.2,0.1-7.8c0-0.2-0.1-1.1-0.2-2.3c-0.1-0.6-0.2-1.3-0.3-2.1l0-0.3v-0.2l0,0c-3.4,1.6-8.7,4-7.1,3.3l0,0l0,0v0.1
	l0.4,0.5l0.8,1c2.8,2.6,3.9,7.3,12.2,9.6c2.2,0.2,4.3-0.4,6.1-1.7c1.6-1.3,2.8-3.2,3.2-5.3c0.5-2.3,0.6-4.6,0.4-6.9
	c-0.3-3.7-1-5.9-1.3-6c-0.1,0.1,0.5,5.9,0.4,6.2c0,2.7-0.5,5.3-1.3,7.8c-1.9,5.7-8.9,4.7-11.3,1.6c-2.9-2.5-5.9-4.9-7.6-7.1
	l-0.6-0.8l-0.1-0.1l0,0l0,0c1.8-0.8-4.1,1.8,4.1-1.9v0.1v0.2l0.1,0.5c0.1,0.6,0.2,1.2,0.2,1.7c0.1,1,0.2,1.8,0.3,2.3
	c-0.9,3.8,1.5,6.9-1.3,11.9c-2.6,2.4-4.5,2.8-7.7,2.2c-2.2-0.8-4.1-2.1-5.5-3.9c-1.7-1.7-3.2-3.5-4.5-5.5L13.9,45.7
	C13.9,45.7,13.9,45.7,13.9,45.7L13.9,45.7z"/>
<path class="st1" d="M15.3,44.8c1.3,2,2.7,3.8,4.4,5.4c1.6,1.7,3.3,4.1,7,4.1c1.7,0,3.4-0.7,4.6-1.9c0.9-1.2,1.6-2.6,1.8-4.1
	c0.4-2.4,0.4-4.9,0.1-7.4c0-0.2-0.1-1-0.2-2.2c-0.1-0.6-0.2-1.3-0.3-2v-0.3v-0.2l0,0c3.7-1.7-5.1,2.3-4.2,1.9l0,0l0,0h0l0.4,0.5
	l0.8,1c2.6,2.6,4.2,7.1,11.1,9c1.8,0.2,3.5-0.3,5-1.4c1.3-1.1,2.2-2.6,2.6-4.3c0.4-2.1,0.5-4.2,0.2-6.4c-0.3-3.5-1-5.8-1.3-5.8
	c-0.1,0,0.5,5.7,0.4,6c0,2.4-0.4,4.8-1.1,7C45,48.1,39,47.7,36.8,45c-2.3-2.2-4.4-4.5-6.3-7.1l-0.6-0.8c2-1.4,0.6,0.2,1.1,0.1
	c0.1,0.6,0.2,1.1,0.2,1.6c0.1,1,0.2,1.7,0.3,2.2c-0.1,3.9,1.2,6.9-0.9,10.6c-3.2,3.7-8.8,1.1-10.7-1.8c-1.7-1.6-3.2-3.4-4.4-5.3
	L15.3,44.8C15.3,44.7,15.3,44.8,15.3,44.8C15.4,44.8,15.4,44.8,15.3,44.8L15.3,44.8z"/>
<path class="st1" d="M16.7,43.9c1.2,1.9,2.6,3.7,4.2,5.3c1.6,1.7,3.1,3.5,5.7,3.5c2.6,0,4.7-2,4.8-4.6c0.4-2.3,0.4-4.6,0.1-6.9
	c0-0.2-0.1-1-0.2-2.1c-0.1-0.6-0.2-1.2-0.3-2l0-0.3v-0.2c-2.5,1.1-0.6,0.4-1.1,0.6l0.4,0.5l0.8,1c2.4,2.6,5.1,8.9,9.9,8.4
	c2.8,0.3,5.3-1.6,5.7-4.3c0.4-2,0.5-4,0.3-6c-0.3-3.4-0.9-5.6-1.2-5.6s0.5,5.5,0.4,5.7c0,2.2-0.4,4.3-1.1,6.4c-1,2.7-4,2.5-6.1,0.2
	c-2.4-2.1-5.4-4.4-7.1-6.5l-0.6-0.8L31.1,36v0l0,0l-1.9,0.8l0,0V37l0.1,0.4c0.1,0.6,0.2,1.1,0.2,1.6c0.1,1,0.2,1.7,0.3,2.2
	c0.2,3.4,0.9,6.9-0.5,9.4c-2.1,2.5-6,1-8.1-1.8c-1.6-1.5-3.1-3.2-4.3-5.1h-0.1C16.7,43.7,16.7,43.7,16.7,43.9
	C16.7,43.8,16.7,43.8,16.7,43.9L16.7,43.9z"/>
<path class="st1" d="M18.1,42.9c1.2,1.8,2.5,3.6,4.1,5.1c1.4,1.6,2.8,3,4.3,2.9c3.8,0.3,3.6-5.5,3.2-9.7c0-0.2-0.1-1-0.2-2.1
	c-0.1-0.5-0.1-1.2-0.3-1.9V37v-0.1l0,0l1.7-0.8l0,0l0,0v0l0.4,0.5l0.8,1c2.2,2.5,4.9,6.9,8.8,7.8c4.8,0.5,4.4-5.8,4.2-8.6
	c-0.3-3.3-0.9-5.4-1.2-5.3s0.5,5.2,0.3,5.5c-0.1,1.9-0.4,3.9-1,5.7c-0.5,1.2-2.6,1.7-4.6-0.3c-2.1-2-4-4.2-5.7-6.5l-0.5-0.7L32.4,35
	l0,0l0,0c-2.1,1,4.8-2.2-4.8,2.2l0,0l0,0v0.2l0.1,0.4c0.1,0.5,0.2,1.1,0.2,1.5c0.1,0.9,0.2,1.6,0.3,2.1c0.5,3.1,0.6,6.9-0.1,8.1
	c-1.1,1.2-3.3,1-5.6-1.8c-1.6-1.5-3-3.1-4.2-4.9L18.1,42.9C18.1,42.9,18.1,43,18.1,42.9L18.1,42.9z"/>
<path class="st1" d="M19.5,42c1.1,1.8,2.5,3.4,4,4.9c1.4,1.6,2.5,2.5,3,2.3c1.5,1.1,2.2-3.4,1.6-7.9c0-0.2-0.1-0.9-0.2-2
	c-0.1-0.5-0.1-1.2-0.2-1.8v-0.3v-0.1l0,0l4.7-2.2l0,0l0,0v0.1l0.3,0.5l0.8,1c1.9,2.5,5.2,7.6,7.6,7.2c2.7,0.7,2.5-3.5,2.4-6.8
	c-0.3-3.1-0.9-5.2-1.2-5.1s0.4,5,0.3,5.3c-0.1,1.1-0.2,3.7-0.9,5c-0.1-0.3-0.2,0.6-2-1c-2-1.9-3.8-4-5.4-6.2l-0.6-0.7L33.7,34l0,0
	l0,0c-3.5,1.6-6,2.8-7.8,3.5l0,0l0,0v0.2l0.1,0.4c0.1,0.5,0.2,1,0.2,1.5c0.1,0.9,0.2,1.6,0.3,2c0.4,2.3,0.5,4.6,0.2,6.9
	c0,0-0.6,0.9-3-1.8c-1.6-1.4-2.9-3-4.1-4.8L19.5,42C19.5,42,19.5,42.1,19.5,42L19.5,42z"/>
<path class="st0" d="M8.2,24.9c0,0-1.7-11,2.6-13.1c2.7-1.3,6.2-0.4,12.5,7.7c0,0-2.6-13.4,1.6-15.5c2.6-1.2,5.3,0.8,11.1,7.5"/>
<path class="st2" d="M39,8.8c-1.4-1.7-3.1-3.3-4.8-4.7c-1.9-1.5-3.1-3.6-7.7-4.2c-2.4-0.1-4.7,1.1-5.9,3.1C19.8,4.5,19.2,6,19,7.5
	c-0.4,2.4-0.5,4.9-0.2,7.3c0,0.2,0.1,1,0.2,2.1c0.1,0.6,0.1,1.2,0.2,2c0.1,0.4,0.1,0.8,0.2,1.2c14.3-6.5,4-1.8,7.2-3.3l0,0l0,0
	l-0.1-0.1l-0.1-0.1l-0.2-0.2l-0.4-0.5C23.3,13.4,21.4,9,14,7.1C10.1,6,5.3,9.9,4.6,12.8c-0.8,2.2-1.2,4.5-1.1,6.8
	c0,3.6,0.6,5.8,0.9,5.9c0.1-0.1-0.2-5.7,0-6c0.3-1.4,0.3-3.9,2.2-7.4c2.4-4.8,9.5-3.9,12-1.3c2.4,2,4.6,4.3,6.5,6.9l0.1,0.2l0.1,0.1
	l0,0l0,0c3.7-1.7-5,2.3-4.1,1.9l0,0l0,0l-0.1-0.5l-0.1-0.9c-0.1-0.6-0.1-1.1-0.2-1.6l-0.3-2.2c0.3-2.7-1.1-6.6,0.9-11
	C22.7,1,26.7,0,29,1.1c1.9,0.8,3.6,1.9,5.1,3.3c1.8,1.6,3.5,2.8,4.9,4.5L39,8.8C39.1,8.9,39.1,8.9,39,8.8C39.1,8.9,39.1,8.8,39,8.8
	L39,8.8z"/>
<path class="st2" d="M37.8,9.9c-1.4-1.7-3-3.2-4.7-4.6c-1.8-1.4-3-3.3-6.6-3.7C24.7,1.6,23,2.5,22,4.1c-0.7,1.1-1.2,2.4-1.4,3.7
	c-0.4,2.3-0.4,4.6-0.1,6.9c0,0.2,0.1,1,0.2,2.1c0.1,0.5,0.1,1.2,0.2,1.9c0,0.4,0.1,0.7,0.2,1.2c8.4-3.8,2.3-1.1,4.2-1.9l0,0l0,0
	v-0.1l-0.1-0.1L25,17.6l-0.4-0.5c-2.3-2.5-4-7.1-10.2-8.6c-3.2-0.8-7.5,2.5-8.1,5.1c-0.7,2-1,4.1-1,6.2c0,3.4,0.6,5.6,0.9,5.6
	c0.1-0.1-0.2-5.4,0-5.7c0.2-2.3,0.9-4.6,2-6.6c1.9-3.6,7.2-3,9.5-0.7c2.3,1.9,4.4,4.1,6.1,6.5c-0.4,0.3,1.4-0.2-0.9,0.8l-0.1-0.5
	l-0.1-0.9c-0.1-0.6-0.1-1.1-0.2-1.5c-0.1-0.9-0.2-1.6-0.3-2.1c0-2.9-0.9-6.5,0.7-10c1.2-1.9,3.5-2.7,5.6-1.9
	c1.6,0.7,3.1,1.7,4.4,2.9c1.7,1.5,3.5,2.7,4.8,4.4L37.8,9.9C37.8,10,37.8,10,37.8,9.9C37.8,9.9,37.8,9.9,37.8,9.9L37.8,9.9z"/>
<path class="st2" d="M36.5,11c-1.4-1.6-2.9-3.1-4.6-4.4c-1.6-1.4-3-3-5.5-3.2c-2.8-0.2-3.9,2.8-4.2,4.7c-0.4,2.2-0.4,4.4-0.1,6.5
	c0,0.2,0.1,0.9,0.2,2c0,0.5,0.1,1.2,0.2,1.9l0.2,1.1c0.5-0.2,0.9-0.4,1.2-0.6l0,0l0,0l0-0.1l-0.1-0.1l-0.2-0.2l-0.4-0.5
	c-2.1-2.5-5-8.1-9.6-7.6c-2.6-0.4-5.1,1.2-5.9,3.6c-0.6,1.8-0.9,3.7-0.9,5.6c0,3.2,0.6,5.3,0.8,5.4c0.1,0-0.1-5.2,0-5.4
	c0.2-2.1,0.8-4.1,1.8-5.9c1.3-2.4,4.9-2.1,7-0.2c2.2,1.8,4.1,3.9,5.8,6.2l0.1,0.2l0.2,0.2l0.1,0l0.2-0.1l1.6-0.8l0.1-0.2l-0.2,0.1
	l0-0.5l-0.2-0.8c-0.1-0.5-0.1-1-0.2-1.5c-0.1-0.9-0.1-2-0.1-2.5c-0.4-3.2-0.9-6,0.3-8.5c1.6-2.8,5.4-0.8,7.6,1.4
	c1.7,1.2,3.3,2.7,4.6,4.3h0.1C36.5,11.1,36.5,11.1,36.5,11C36.5,11,36.5,11,36.5,11L36.5,11z"/>
<path class="st2" d="M35.2,12.1c-1.3-1.6-2.8-3-4.4-4.3c-1.5-1.4-3-2.7-4.3-2.8c-2.8-0.2-3.1,5.6-2.6,9.4c0,0.2,0.1,0.9,0.2,2
	c0,0.5,0.1,1.1,0.2,1.8l0.1,1.1l-1.7,0.8l0,0l0,0V20l-0.1-0.2l-0.2-0.2l-0.4-0.5c-2-2.5-4.8-6.2-8.5-7.1c-4.3-0.6-5,4.9-4.9,7.6
	c0,3.1,0.5,5.1,0.8,5.1s-0.1-4.9,0.1-5.1c0.2-1.8,0.7-3.5,1.5-5.1c0.8-1.2,2.6-1.3,4.6,0.4c2,1.7,3.9,3.7,5.4,5.9l0.1,0.2l0.1,0.1
	l0,0l0,0c0.4-0.1,5.9-2.6,4.8-2.2l0,0l0,0L26,18.5l-0.1-0.8c-0.1-0.5-0.1-1-0.2-1.4c-0.1-0.9-0.2-1.6-0.2-2c-0.4-3-0.6-6.3,0.2-8
	c0.1-1.2,2.5-0.6,5,1.7c1.7,1.2,3.2,2.6,4.5,4.2L35.2,12.1C35.3,12.1,35.3,12.1,35.2,12.1C35.2,12,35.2,12,35.2,12.1L35.2,12.1z"/>
<path class="st2" d="M34,13.2c-1.3-1.5-2.8-3-4.3-4.2c-1.4-1.3-3-2.4-3.2-2.3c0-1.5-1.8,3.8-1,7.6c0,0.2,0.1,0.9,0.2,1.9
	c0,0.5,0.1,1.1,0.2,1.8l0.1,1c-9.3,4.2-2.6,1.2-4.7,2.1l0,0l0,0V21l-0.1-0.1L21,20.6l-0.4-0.5c-1.8-2.4-4.9-6-7.4-6.4
	c-2.3-0.7-3,3-3,6s0.5,4.9,0.8,4.8c0.2,0.1-0.1-4.7,0.1-4.8c0.2-1,0.6-3.3,1.3-4.3c0.3-0.1,0.3-0.4,2.2,0.9c1.9,1.7,3.6,3.5,5.1,5.5
	l0.1,0.2l0.1,0.1l0,0l0,0c3.1-1.3,9.4-4.3,7.8-3.5l0,0l0,0l-0.1-0.4l-0.1-0.7c-0.1-0.5-0.1-1-0.2-1.4c-0.1-0.9-0.2-1.5-0.2-1.9
	c-0.5-2.8-0.4-6.2-0.1-6.9c-0.1,0.3-1,0.2-0.5,0.2c1.1,0.5,2,1.1,2.9,1.9c1.6,1.2,3.1,2.5,4.4,4L34,13.2C34,13.2,34,13.2,34,13.2
	C33.9,13.2,33.9,13.2,34,13.2L34,13.2z"/>
<path class="st0" d="M10.3,47.2c0,0,7.9-5.7,8.1-5.9c3.8-2.9,1.4-7.9-3.4-6.9c-7.3,1.5-9.9-0.9-10.7-2.2c-1-1.8-1.9-6.6,6.2-8.9"/>
<path class="st3" d="M9.4,19.4C7.4,20,5.6,21,4,22.3c-2.1,1.6-3.5,3.9-3.9,6.4c-0.4,2.9,0.7,5.8,3,7.7C5,38,7.4,38.8,9.8,38.8
	c1.9,0.1,3.8,0,5.6-0.3c1.1-0.2,0.8,0.3,1.1-0.2s0.5-0.1-0.2-0.4c0.2-0.9-3.7,2.5-5.3,3.5c-1.9,1.4-3.1,2.5-2.9,2.7s3.3-2,3.5-2.1
	c1.6-0.9,7.2-3.7,6.1-4.5c0.2-1.7-6.3,0-7.8-0.3c-2.8,0-6.6-0.7-8.5-4.6c-1.6-3.2-0.2-8,2.8-10c1.5-1.4,3.3-2.4,5.2-3L9.4,19.4
	C9.4,19.4,9.4,19.4,9.4,19.4C9.4,19.4,9.4,19.4,9.4,19.4L9.4,19.4z"/>
<path class="st3" d="M9.9,21c-1.8,0.5-3.5,1.4-4.9,2.6c-1.7,1.3-2.9,3.2-3.3,5.3c-0.3,2.3,0.6,4.7,2.4,6.2c1.7,1.3,3.7,1.9,5.8,1.9
	c1.7,0.1,3.5,0,5.2-0.3c2.1-0.4,1.6,1.5,1.2,2.3c-0.1,0.7-2.9,2.3-4.4,3.6c-1.9,1.4-3.1,2.5-2.9,2.7s3.3-2,3.5-2.1
	c1.2-1.1,7.8-2.8,6.6-6.6c-2-3.5-8.1-0.5-9.2-1.3c-2.5,0-5.6-0.6-7-3.5c-1.2-2.9-0.3-6.2,2.2-8c1.3-1.2,2.9-2.2,4.7-2.7L9.9,21
	C9.9,21.1,9.8,21.1,9.9,21L9.9,21z"/>
<path class="st3" d="M10.3,22.6C8.7,23.1,7.2,23.9,6,25c-1.3,1-2.3,2.5-2.6,4.1c-0.7,3.8,3.1,6.5,6.6,6.4c-0.2,1,9.9-2.6,8.7,3.7
	c-3.4,3.8-9.4,7-8.7,7.6c0.1,0.2,3.3-2,3.5-2.1c0.9-0.4,2.4-1.3,4.1-2.3c1.7-0.8,4.3-3.4,3-6.4s-5.1-2.9-6.7-2.5
	c-1.3,0.2-2.6,0.3-3.9,0.3c-2.3,0.1-4.6-0.5-5.5-2.5c-1-2.2-0.3-4.7,1.7-6.1c1.2-1.1,2.6-2,4.1-2.5L10.3,22.6
	C10.4,22.7,10.3,22.6,10.3,22.6z"/>
<path class="st3" d="M10.8,24.3c-1.4,0.4-2.7,1.1-3.8,2.1c-1,0.7-1.7,1.8-1.9,2.9c-0.4,2.7,1.8,4.5,5,4.5c1.5,0.1,3,0,4.5-0.2
	c1.9,0.4,7.5,2,5.8,6.2c-2.6,4.1-9.7,7.5-9.3,8.4c0.1,0.2,3.3-2,3.5-2.1c1.5-0.7,2.9-1.5,4.3-2.4c1.6-0.6,6.1-4.9,3.3-8.4
	c-1.8-4.1-7.6-4-9-3.6c-1.7,0.3-2.4,0.4-2.9,0.5c-4.1,0.5-5.9-2.6-3-5.5c1-1,2.2-1.8,3.6-2.2L10.8,24.3
	C10.8,24.3,10.8,24.3,10.8,24.3L10.8,24.3z"/>
<path class="st3" d="M11.2,25.9c-1.2,0.3-2.3,1-3.2,1.8c-0.7,0.7-1.2,1.1-1.3,1.8c-0.2,1.5,0.4,2.4,3.5,2.6c1.3,0.1,2.7,0,4-0.2
	c1.3-0.2,3.9-0.5,6,1.1c2.2,1.6,3.1,4.5,2.1,7c-2.8,4.8-5.5,4.8-7.3,6.8c-1.9,1.4-3.1,2.5-2.9,2.7s3.3-2,3.5-2.1
	c1.4-0.7,2.8-1.5,4.1-2.3c1.6-0.4,6.6-5.3,4-10.6c-2.3-5.2-9.1-4.7-10.3-4.3c-1,0.2-2.1,0.2-3.1,0.3c-0.9,0.1-1.8-0.1-2.6-0.3
	c-0.2-0.6-0.6-1.1,0.5-2.2c0.8-0.9,1.9-1.6,3.1-1.9L11.2,25.9L11.2,25.9L11.2,25.9z"/>
<path class="st0" d="M43.3,8.9c0,0-7.9,5.7-8.1,5.9c-3.8,2.9-1.4,7.9,3.4,6.9c7.3-1.5,9.9,1,10.7,2.2c1.1,1.7,1.8,6.8-6.3,9"/>
<path class="st4" d="M44.2,36.8c2-0.6,3.8-1.6,5.4-2.9c1.8-1.5,3.6-3.4,4-6.3c0.5-3-0.6-5.9-2.9-7.9c-1.9-1.5-4.2-2.3-6.7-2.4
	c-1.9-0.1-3.8,0-5.7,0.3c-1.2,0.2-0.8-0.3-1.1,0.2s-0.5,0.2,0.2,0.4c-0.2,0.9,3.7-2.5,5.3-3.5c1.9-1.4,3.1-2.5,3-2.8s-3.3,2-3.5,2.1
	c-1.6,0.9-7.2,3.7-6.1,4.5c-0.2,1.7,6.4,0,7.9,0.4c2.8,0.1,6.5,0.7,8.4,4.7c1.5,3.5-0.1,7.9-2.9,10c-1.5,1.4-3.3,2.4-5.2,3
	L44.2,36.8C44.2,36.8,44.2,36.8,44.2,36.8L44.2,36.8z"/>
<path class="st4" d="M43.7,35.2c1.8-0.5,3.5-1.4,4.9-2.6c1.5-1.3,3-2.8,3.3-5.2c1.1-5.1-4.4-8.7-8.1-8.3c1.1-1-2.5-0.2-5.3,0.3
	c-2.2,0.4-1.7-1.5-1.3-2.3c0.1-0.7,2.9-2.3,4.4-3.6c1.9-1.4,3.1-2.5,3-2.7s-3.3,2-3.5,2.1c-1.2,1.1-7.9,2.9-6.6,6.6
	c2,3.4,8.1,0.5,9.2,1.3c2.5,0,5.6,0.7,7,3.6c1.1,2.9,0.1,6.2-2.4,8c-1.3,1.3-2.9,2.2-4.7,2.7L43.7,35.2
	C43.7,35.1,43.7,35.2,43.7,35.2L43.7,35.2z"/>
<path class="st4" d="M43.3,33.6c1.6-0.5,3.1-1.3,4.3-2.4c1.2-1.1,2.4-2.3,2.7-4.1c0.8-3.9-3.1-6.6-6.5-6.5c-0.3,0-0.6-1.1-3.1-0.7
	c-2.3,0.8-6.6-0.6-5.5-3.1c3.4-3.9,9.3-7,8.6-7.5c-0.1-0.2-3.3,2-3.5,2.1c-0.9,0.4-2.4,1.3-4.1,2.4c-1.7,0.8-4.3,3.4-2.9,6.4
	c1.3,3,5.1,2.8,6.8,2.4c1.3-0.2,2.6-0.3,3.8-0.3c2.2,0,4.6,0.7,5.5,2.5c0.9,2.2,0.1,4.7-1.8,6.1c-1.2,1.1-2.6,2-4.2,2.5L43.3,33.6
	C43.2,33.5,43.2,33.6,43.3,33.6L43.3,33.6z"/>
<path class="st4" d="M42.8,32c1.4-0.4,2.7-1.1,3.8-2.1c1-0.9,1.8-1.7,2-3c0.6-2.6-1.8-4.5-5-4.5c-1.3-0.4-2.7-0.5-4.1-0.3
	c-2.5,1.2-7.8-1.6-6.1-5.9c4.5-5.4,9.7-7.3,9.2-8.2c-0.1-0.2-3.3,2-3.5,2.1c-0.9,0.4-2.4,1.3-4.2,2.3c-1.7,0.6-5.4,4.4-3.4,8.5
	c2,4.1,7.2,3.7,8.5,3.3c1.1-0.2,2.3-0.3,3.4-0.2c4.1-0.4,5.9,2.6,2.9,5.6c-1,1-2.2,1.8-3.6,2.2L42.8,32C42.8,31.9,42.8,32,42.8,32
	L42.8,32z"/>
<path class="st4" d="M42.4,30.3c1.2-0.3,2.3-1,3.2-1.8c0.7-0.7,1.3-1.2,1.3-1.8c0.4-1.4-0.4-2.3-3.4-2.6c-1.3-0.1-2.7,0-4,0.2
	c-1.3,0.2-3.9,0.5-5.9-1.1c-2.1-1.4-2.7-5-1.7-7.4c2.8-4.8,5-4.4,6.8-6.3c1.9-1.4,3.1-2.5,3-2.7s-3.3,2-3.5,2.1
	c-0.9,0.4-2.4,1.3-4.2,2.4c-1.6,0.4-6.6,5.4-3.9,10.6c2.4,5.2,9.2,4.6,10.3,4.2c1-0.2,2-0.3,3.1-0.3c1.7-0.2,2.8,0.6,2.7,0.4
	c0.2,0.4,0.5,1.1-0.7,2.3c-0.8,0.9-1.9,1.6-3.1,1.9L42.4,30.3L42.4,30.3L42.4,30.3z"/>
</svg>
